<?xml version="1.0" encoding="utf-8"?>
<!-- Generator: Adobe Illustrator 23.1.1, SVG Export Plug-In . SVG Version: 6.00 Build 0)  -->
<svg version="1.1" id="Layer_1" xmlns="http://www.w3.org/2000/svg" xmlns:xlink="http://www.w3.org/1999/xlink" x="0px" y="0px"
	 viewBox="0 0 1024 1024" style="enable-background:new 0 0 1024 1024;" xml:space="preserve">
<style type="text/css">
	.st0{fill:#6D6D6D;}
	.st1{fill:#FFFFFF;}
</style>
<circle class="st0" cx="512" cy="512" r="500"/>
<g>
	<path class="st1" d="M862.8,819.9L684.4,634.4c45.9-54.5,71-123.1,71-194.6c0-166.9-135.8-302.6-302.6-302.6S150.2,273,150.2,439.9
		s135.8,302.6,302.6,302.6c62.6,0,122.3-18.9,173.4-54.8l179.8,186.9c7.5,7.8,17.6,12.1,28.4,12.1c10.2,0,20-3.9,27.4-11
		C877.4,860.7,877.9,835.6,862.8,819.9z M452.8,216.2c123.3,0,223.7,100.3,223.7,223.7S576.1,663.5,452.8,663.5
		S229.1,563.2,229.1,439.9S329.5,216.2,452.8,216.2z"/>
	<g>
		<path class="st1" d="M316.9,540.8V349.5c0-9.9,2.3-17.4,6.8-22.4c4.5-5,10.4-7.5,17.6-7.5c7.4,0,13.4,2.5,18,7.4
			c4.6,4.9,6.9,12.4,6.9,22.4v191.3c0,10.1-2.3,17.6-6.9,22.5c-4.6,5-10.6,7.5-18,7.5c-7.1,0-12.9-2.5-17.5-7.5
			C319.2,558.2,316.9,550.8,316.9,540.8z"/>
		<path class="st1" d="M515.4,472.1h-45.1v68.7c0,9.8-2.3,17.3-7,22.4c-4.6,5.1-10.5,7.6-17.6,7.6c-7.4,0-13.4-2.5-17.9-7.5
			c-4.5-5-6.8-12.4-6.8-22.1V354c0-10.8,2.5-18.6,7.5-23.2c5-4.6,12.9-7,23.7-7h63.1c18.7,0,33,1.4,43.1,4.3
			c9.9,2.8,18.5,7.3,25.8,13.7c7.2,6.4,12.7,14.2,16.5,23.5c3.8,9.3,5.6,19.7,5.6,31.3c0,24.7-7.6,43.5-22.9,56.2
			C568.2,465.7,545.5,472.1,515.4,472.1z M503.4,360.8h-33.1V435h33.1c11.6,0,21.3-1.2,29.1-3.6c7.8-2.4,13.7-6.4,17.8-11.9
			c4.1-5.5,6.1-12.8,6.1-21.7c0-10.7-3.1-19.4-9.4-26.2C539.9,364.4,525.4,360.8,503.4,360.8z"/>
	</g>
</g>
</svg>
